<svg width="65" height="97" viewBox="0 0 65 97" fill="none" xmlns="http://www.w3.org/2000/svg">
<path d="M21.8893 72.4166L27.8009 51.5296C27.8009 51.5296 15.7203 23.1782 12.4384 15.2121C9.1565 7.24596 15.8519 1.5 15.8519 1.5L32.6183 41.4624H32.6343L49.4016 1.5C49.4016 1.5 56.0987 7.24596 52.8168 15.2121C49.5349 23.1782 37.4526 51.5296 37.4526 51.5296L43.3238 72.2714" stroke="#E9C664" stroke-width="3" stroke-linecap="round" stroke-linejoin="round"/>
<path d="M27.1714 82.7337C27.1716 85.6016 26.2007 88.386 24.4153 90.6381C22.6299 92.8902 20.1341 94.4788 17.33 95.1478C14.5259 95.8168 11.577 95.5273 8.95858 94.3258C6.34017 93.1244 4.20483 91.0811 2.89671 88.5253C1.58859 85.9695 1.18392 83.05 1.74793 80.2375C2.31194 77.425 3.81175 74.8833 6.00566 73.0221C8.19956 71.161 10.9597 70.0887 13.8412 69.9782C16.7227 69.8677 19.5577 70.7255 21.8892 72.4131" stroke="#E9C664" stroke-width="3" stroke-linecap="round" stroke-linejoin="round"/>
<path d="M43.3228 72.2714C45.6771 70.636 48.515 69.8335 51.3822 69.9921C54.2495 70.1508 56.9803 71.2614 59.1377 73.1464C61.2951 75.0314 62.7543 77.5816 63.2818 80.389C63.8093 83.1964 63.3746 86.0987 62.0473 88.6313C60.7199 91.1639 58.5766 93.1804 55.9605 94.3581C53.3443 95.5358 50.4066 95.8067 47.6173 95.1273C44.8281 94.4479 42.3486 92.8575 40.5758 90.6107C38.8029 88.3639 37.8392 85.5906 37.8389 82.7346" stroke="#E9C664" stroke-width="3" stroke-linecap="round" stroke-linejoin="round"/>
<path d="M27.1714 82.7335C27.2558 79.1926 27.951 58.0867 32.5077 58.0867C37.0795 58.0867 37.7553 79.201 37.8338 82.5649" stroke="#E9C664" stroke-width="3" stroke-linecap="round" stroke-linejoin="round"/>
</svg>
