<svg width="127" height="113" viewBox="0 0 127 113" fill="none" xmlns="http://www.w3.org/2000/svg">
<path d="M85.5268 29.5563C69.2606 29.9814 60.9979 44.4663 60.9979 44.4663L9.61589 56.1748C-2.56682 49.3742 3.52114 34.6464 3.52114 34.6464L92.2657 14.3413" stroke="#E9C664" stroke-width="3" stroke-miterlimit="10"/>
<path d="M113.932 9.38482L116.445 8.811C117.343 8.60718 118.272 8.58135 119.18 8.73501C120.088 8.88866 120.957 9.21881 121.736 9.70642C122.515 10.194 123.189 10.8295 123.72 11.5765C124.251 12.3234 124.629 13.1671 124.83 14.059C125.032 14.951 125.054 15.8737 124.895 16.7742C124.737 17.6747 124.401 18.5353 123.906 19.3065C123.411 20.0777 122.768 20.7443 122.013 21.2682C121.259 21.7921 120.407 22.1629 119.507 22.3592L111.322 24.1234" stroke="#E9C664" stroke-width="3" stroke-miterlimit="10"/>
<path d="M94.1244 9.35918C89.7371 21.8934 72.9004 63.5597 33.4124 96.2251C32.3039 97.1288 31.4937 98.3414 31.0863 99.7065C30.6789 101.072 30.693 102.526 31.1268 103.883C32.3661 107.645 35.515 111.994 43.4856 111.454C56.7104 110.56 108.028 49.8518 114.05 13.6403C114.394 11.709 114.194 9.72102 113.472 7.89522C112.751 6.06942 111.536 4.47656 109.961 3.29197C108.852 2.45601 107.561 1.89108 106.191 1.64295C104.822 1.39482 103.413 1.4705 102.078 1.86385C100.238 2.3776 98.5526 3.32863 97.1667 4.63467C95.7808 5.94071 94.7366 7.56238 94.1244 9.35918Z" stroke="#E9C664" stroke-width="3" stroke-miterlimit="10"/>
<path d="M102.173 21.8242C103.865 21.8242 105.238 20.4623 105.238 18.7822C105.238 17.1022 103.865 15.7402 102.173 15.7402C100.48 15.7402 99.1074 17.1022 99.1074 18.7822C99.1074 20.4623 100.48 21.8242 102.173 21.8242Z" stroke="#E9C664" stroke-width="3" stroke-miterlimit="10"/>
</svg>
