<svg width="113" height="97" viewBox="0 0 113 97" fill="none" xmlns="http://www.w3.org/2000/svg">
<path d="M100.331 95.5005C100.331 95.5005 97.413 81.4625 106.531 60.3135C106.531 60.3135 109.449 48.6455 101.424 43.3585C101.424 43.3585 104.077 40.6235 111.505 47.0955C111.505 47.0955 102.518 28.0435 92.852 24.2145C92.852 24.2145 99.418 22.3915 103.066 17.2865C103.066 17.2865 91.0279 18.0155 84.8269 14.9165C84.8269 14.9165 92.852 12.1815 96.318 4.52446C96.318 4.52446 91.778 6.50247 82.883 5.99647C79.4267 5.78962 76.0049 5.19214 72.683 4.21547C64.374 1.79947 38.406 -3.76653 20.99 14.5515C19.8883 12.9808 18.3529 11.7651 16.5716 11.0528C14.7902 10.3405 12.8399 10.1625 10.959 10.5405L11.0509 10.5765C11.9061 10.9286 12.6574 11.4929 13.2338 12.2161C13.8102 12.9394 14.1927 13.7977 14.345 14.7099C14.4974 15.6221 14.4146 16.5581 14.1045 17.4294C13.7945 18.3007 13.2674 19.0786 12.573 19.6895C9.78313 22.2109 7.45308 25.1984 5.68705 28.5184C1.3714 36.601 0.341835 46.0374 2.81303 54.8605C5.89103 66.0195 11.521 88.5935 8.79399 95.4995C8.79399 95.4995 19.166 72.3455 20.078 50.8325C20.078 50.8325 55.278 62.8655 93.762 50.8325C93.765 50.8335 92.123 82.1895 100.331 95.5005Z" stroke="#E9C664" stroke-width="3" stroke-linecap="round" stroke-linejoin="round"/>
</svg>
