<svg width="111" height="34" viewBox="0 0 111 34" fill="none" xmlns="http://www.w3.org/2000/svg">
<path d="M108.986 1.5C108.344 4.28537 106.948 6.85206 104.941 8.93236C102.829 11.0911 100.185 12.6875 97.2603 13.5697C94.3359 14.4518 91.2285 14.5904 88.2335 13.9723C81.694 12.6893 78.6946 9.74132 77.4774 8.07396C76.253 6.3336 74.5897 4.92936 72.6475 3.99612C67.1739 1.47944 61.5644 3.4513 58.3123 5.13676C57.4464 5.58683 56.4801 5.82226 55.4987 5.82226C54.5173 5.82226 53.551 5.58683 52.685 5.13676C49.433 3.4513 43.8235 1.47944 38.3499 3.99612C36.4078 4.92961 34.7446 6.3338 33.52 8.07396C32.3163 9.71993 29.3684 12.6259 22.9758 13.9295C19.9528 14.5846 16.8074 14.469 13.8436 13.5937C10.8798 12.7185 8.19783 11.1133 6.05677 8.93316C4.05094 6.85244 2.65484 4.28549 2.0141 1.5C2.0141 1.5 -0.260625 50.3028 52.9655 25.4422C53.7566 25.0735 54.6225 24.8822 55.4995 24.8822C56.3765 24.8822 57.2424 25.0735 58.0336 25.4422C111.266 50.3028 108.986 1.5 108.986 1.5Z" stroke="#E9C664" stroke-width="3" stroke-linecap="round" stroke-linejoin="round"/>
</svg>
