<svg width="79" height="115" viewBox="0 0 79 115" fill="none" xmlns="http://www.w3.org/2000/svg">
<path d="M76.2437 49.2072C77.7358 43.5495 77.9012 37.6237 76.7271 31.8916C75.553 26.1595 73.071 20.7759 69.4746 16.1605C65.8783 11.5451 61.2648 7.82253 55.9936 5.28291C50.7223 2.74328 44.9359 1.45523 39.0851 1.51911C33.2344 1.583 27.4774 2.99713 22.2629 5.65125C17.0483 8.30537 12.5172 12.1278 9.0225 16.8206C5.52781 21.5135 3.16394 26.9499 2.11527 32.7062C1.0666 38.4626 1.36146 44.3834 2.97672 50.0071" stroke="#E9C664" stroke-width="3" stroke-linecap="round" stroke-linejoin="round"/>
<path d="M76.2487 48.3011C76.2487 48.3011 76.6867 95.7061 59.8637 104.268C53.6097 107.45 49.1927 109.888 46.1097 111.695C44.1054 112.866 41.8259 113.483 39.5047 113.483C37.1835 113.483 34.904 112.866 32.8997 111.695C29.8177 109.888 25.3998 107.451 19.1468 104.268C2.32377 95.7061 2.98173 49.0901 2.98173 49.0901C35.8317 35.7681 26.9717 3.6001 26.9717 3.6001" stroke="#E9C664" stroke-width="3" stroke-linecap="round" stroke-linejoin="round"/>
<path d="M76.2477 48.6783C76.2477 48.6783 41.0728 48.8242 27.1968 21.6562" stroke="#E9C664" stroke-width="3" stroke-linecap="round" stroke-linejoin="round"/>
</svg>
