<svg width="95" height="83" viewBox="0 0 95 83" fill="none" xmlns="http://www.w3.org/2000/svg">
<path d="M86.7384 2C86.7384 2 81.6274 10.678 67.0515 10.678C67.0515 10.678 58.9495 27.2594 47.2886 14.2446C35.6285 27.2603 27.5265 10.678 27.5265 10.678C12.9574 10.6746 8.25952 2 8.25952 2C8.25952 2 -1.44449 19.6959 3.31247 36.9605L8.25952 30.4661C8.25952 30.4661 8.25954 48.943 15.6806 57.0508L19.8663 45.7381C19.8663 45.7381 22.9081 63.8384 29.9506 68.7404L33.185 60.2558C33.185 60.2558 40.0518 65.6409 38.7615 81C38.7615 81 58.1332 75.733 61.8163 60.2558L65.0507 68.7404C72.0906 63.8384 75.1349 45.7381 75.1349 45.7381L79.3208 57.0508C86.7418 48.943 86.7417 30.4661 86.7417 30.4661L91.6888 36.9572C96.4433 19.6925 86.7384 2 86.7384 2Z" stroke="#E9C664" stroke-width="3" stroke-linecap="round" stroke-linejoin="round"/>
</svg>
