<svg width="800" height="497" viewBox="0 0 800 497" fill="none" xmlns="http://www.w3.org/2000/svg">
<path d="M362.703 126.04C365.839 126.04 367.823 125.464 368.655 124.312C369.551 123.16 369.999 121.208 369.999 118.456V99.832H363.855V97.72H391.503V99.832H387.759V126.904H386.319C385.167 125.304 383.535 124.504 381.423 124.504C380.527 124.504 377.839 125.08 373.359 126.232C368.943 127.384 365.167 127.96 362.031 127.96C351.599 127.96 343.503 125.144 337.743 119.512C332.047 113.88 329.199 105.432 329.199 94.168C329.199 82.84 332.175 74.104 338.127 67.96C344.143 61.816 352.207 58.744 362.319 58.744C366.223 58.744 370.127 59.256 374.031 60.28C377.999 61.24 380.303 61.72 380.943 61.72C381.583 61.72 382.063 61.592 382.383 61.336C382.703 61.016 383.055 60.504 383.439 59.8H384.495L385.263 80.632H383.535C380.399 74.424 377.231 69.56 374.031 66.04C370.895 62.456 367.375 60.664 363.471 60.664C353.679 60.664 348.783 70.232 348.783 89.368V96.952C348.783 106.552 349.967 113.816 352.335 118.744C354.767 123.608 358.223 126.04 362.703 126.04ZM401.838 59.8H431.118V61.624H425.838V91.96L426.606 91.768L453.677 61.624H446.094V59.8H462.894V61.624H457.134L440.622 80.056L463.662 125.176H468.846V127H438.03V125.176H442.542L426.702 94.552L425.838 94.744V125.176H431.118V127H401.838V125.176H407.118V61.624H401.838V59.8ZM56.4629 189.8H85.1669C94.0629 189.8 100.719 191.016 105.135 193.448C109.615 195.816 111.855 199.848 111.855 205.544C111.855 214.312 106.575 219.56 96.0149 221.288V221.48C108.815 223.08 115.215 228.648 115.215 238.184C115.215 245.16 112.591 250.056 107.343 252.872C102.095 255.624 94.5429 257 84.6869 257H56.4629V255.176H62.7029V191.624H56.4629V189.8ZM81.4229 223.016V255.176H85.9349C89.4549 255.176 91.9189 253.96 93.3269 251.528C94.7349 249.096 95.4389 245.512 95.4389 240.776V235.688C95.4389 231.464 94.5749 228.296 92.8469 226.184C91.1189 224.072 88.0469 223.016 83.6309 223.016H81.4229ZM81.4229 191.624V221.192H83.9189C87.2469 221.192 89.5509 220.2 90.8309 218.216C92.1749 216.168 92.8469 213.064 92.8469 208.904V204.392C92.8469 199.656 92.2709 196.36 91.1189 194.504C89.9669 192.584 87.7589 191.624 84.4949 191.624H81.4229ZM161.094 255.176L154.086 234.44H135.078L127.686 255.176H134.886V257H120.198V255.176H124.71L149.19 189.224H157.062L181.254 255.176H185.67V257H154.278V255.176H161.094ZM144.966 207.176L135.942 232.328H153.318L144.966 207.176ZM222.566 223.016H217.478V255.176H223.718V257H192.518V255.176H198.758V191.624H192.518V189.8H221.51C229.83 189.8 235.718 190.248 239.174 191.144C242.694 191.976 245.158 193 246.566 194.216C249.638 196.712 251.174 200.68 251.174 206.12C251.174 211.56 249.83 215.464 247.142 217.832C244.454 220.136 240.358 221.512 234.854 221.96V222.248C240.038 222.952 243.654 224.488 245.702 226.856C247.75 229.224 248.774 233.192 248.774 238.76V243.848C248.774 247.176 248.934 249.416 249.254 250.568C249.638 251.72 250.406 252.296 251.558 252.296C252.71 252.296 253.606 251.784 254.246 250.76C254.95 249.672 255.59 247.432 256.166 244.04L257.798 244.232C257.094 249.672 255.846 253.32 254.054 255.176C252.326 257.032 248.838 257.96 243.59 257.96C238.342 257.96 234.598 256.744 232.358 254.312C230.182 251.816 229.094 247.176 229.094 240.392V233.384C229.094 229.8 228.614 227.176 227.654 225.512C226.758 223.848 225.062 223.016 222.566 223.016ZM217.478 191.624V221.192H220.55C224.198 221.192 226.886 220.072 228.614 217.832C230.406 215.592 231.302 211.944 231.302 206.888V204.104C231.302 199.048 230.438 195.72 228.71 194.12C227.046 192.456 224.358 191.624 220.646 191.624H217.478ZM266.613 189.8H295.317C304.213 189.8 310.869 191.016 315.285 193.448C319.765 195.816 322.005 199.848 322.005 205.544C322.005 214.312 316.725 219.56 306.165 221.288V221.48C318.965 223.08 325.365 228.648 325.365 238.184C325.365 245.16 322.741 250.056 317.493 252.872C312.245 255.624 304.693 257 294.837 257H266.613V255.176H272.853V191.624H266.613V189.8ZM291.573 223.016V255.176H296.085C299.605 255.176 302.069 253.96 303.477 251.528C304.885 249.096 305.589 245.512 305.589 240.776V235.688C305.589 231.464 304.725 228.296 302.997 226.184C301.269 224.072 298.197 223.016 293.781 223.016H291.573ZM291.573 191.624V221.192H294.069C297.397 221.192 299.701 220.2 300.981 218.216C302.325 216.168 302.997 213.064 302.997 208.904V204.392C302.997 199.656 302.421 196.36 301.269 194.504C300.117 192.584 297.909 191.624 294.645 191.624H291.573ZM334.694 189.8H384.614L385.574 208.808H383.846C381.158 202.344 378.342 197.928 375.398 195.56C372.454 193.128 368.134 191.912 362.438 191.912H359.078V221.576H362.342C365.35 221.576 367.878 220.456 369.926 218.216C371.974 215.912 373.414 212.84 374.246 209H375.686V237.416H374.054C372.902 232.616 371.334 229.192 369.35 227.144C367.43 225.096 364.774 224.072 361.382 224.072H359.078V254.888H362.726C368.614 254.888 373.606 253.128 377.702 249.608C381.862 246.088 384.71 241.576 386.246 236.072H388.166L387.398 257H334.694V254.888H340.358V191.912H334.694V189.8ZM428.872 223.016H423.784V255.176H430.024V257H398.824V255.176H405.064V191.624H398.824V189.8H427.816C436.136 189.8 442.024 190.248 445.48 191.144C449 191.976 451.464 193 452.872 194.216C455.944 196.712 457.48 200.68 457.48 206.12C457.48 211.56 456.136 215.464 453.448 217.832C450.76 220.136 446.664 221.512 441.16 221.96V222.248C446.344 222.952 449.96 224.488 452.008 226.856C454.056 229.224 455.08 233.192 455.08 238.76V243.848C455.08 247.176 455.24 249.416 455.56 250.568C455.944 251.72 456.712 252.296 457.864 252.296C459.016 252.296 459.912 251.784 460.552 250.76C461.256 249.672 461.896 247.432 462.472 244.04L464.104 244.232C463.4 249.672 462.152 253.32 460.36 255.176C458.632 257.032 455.144 257.96 449.896 257.96C444.648 257.96 440.904 256.744 438.664 254.312C436.488 251.816 435.4 247.176 435.4 240.392V233.384C435.4 229.8 434.92 227.176 433.96 225.512C433.064 223.848 431.368 223.016 428.872 223.016ZM423.784 191.624V221.192H426.856C430.504 221.192 433.192 220.072 434.92 217.832C436.712 215.592 437.608 211.944 437.608 206.888V204.104C437.608 199.048 436.744 195.72 435.016 194.12C433.352 192.456 430.664 191.624 426.952 191.624H423.784ZM500.228 255.944C503.428 255.944 506.244 255.08 508.676 253.352C511.172 251.624 512.42 249.032 512.42 245.576C512.42 242.056 511.076 239.368 508.388 237.512C505.764 235.656 501.988 234.056 497.06 232.712C492.196 231.304 488.644 230.088 486.404 229.064C484.228 228.04 482.148 226.696 480.164 225.032C476.196 221.704 474.212 216.552 474.212 209.576C474.212 203.88 476.228 198.984 480.26 194.888C484.356 190.792 489.924 188.744 496.964 188.744C500.356 188.744 503.876 189.256 507.524 190.28C511.236 191.24 513.54 191.72 514.436 191.72C515.332 191.72 516.132 191.08 516.836 189.8H517.892L518.564 209.192H517.028C513.956 203.624 510.724 199.176 507.332 195.848C504.004 192.456 500.356 190.76 496.388 190.76C492.484 190.76 489.444 191.688 487.268 193.544C485.092 195.336 484.004 197.768 484.004 200.84C484.004 203.848 485.284 206.184 487.844 207.848C490.468 209.448 493.668 210.76 497.444 211.784C501.22 212.808 503.684 213.512 504.836 213.896C506.052 214.28 507.524 214.824 509.252 215.528C511.044 216.168 512.484 216.872 513.572 217.64C514.724 218.344 515.908 219.272 517.124 220.424C518.404 221.512 519.396 222.728 520.1 224.072C521.828 227.144 522.692 230.792 522.692 235.016C522.692 241.928 520.516 247.496 516.164 251.72C511.876 255.88 506.212 257.96 499.172 257.96C495.524 257.96 491.332 257.48 486.596 256.52C481.924 255.56 479.332 255.08 478.82 255.08C477.924 255.08 477.06 256.04 476.228 257.96H474.884L473.924 235.112H475.556C478.372 240.68 481.956 245.544 486.308 249.704C490.724 253.864 495.364 255.944 500.228 255.944ZM533.407 189.8H563.359V191.624H557.791V221.384H576.895V191.624H571.231V189.8H601.279V191.624H595.615V255.176H601.279V257H571.231V255.176H576.895V223.88H557.791V255.176H563.359V257H533.407V255.176H539.071V191.624H533.407V189.8ZM656.193 227.336V220.232C656.193 208.52 655.617 201.128 654.465 198.056C653.185 194.536 651.361 192.36 648.993 191.528C647.649 191.016 646.017 190.76 644.097 190.76C642.177 190.76 640.513 191.016 639.105 191.528C637.761 192.04 636.641 192.936 635.745 194.216C634.849 195.496 634.113 196.84 633.537 198.248C633.025 199.656 632.609 201.64 632.289 204.2C631.905 207.912 631.713 213.384 631.713 220.616V227.528C631.713 235.336 632.001 240.904 632.577 244.232C633.217 247.496 633.985 249.832 634.881 251.24C636.865 254.376 639.937 255.944 644.097 255.944C649.153 255.944 652.417 253.832 653.889 249.608C655.425 245.32 656.193 237.896 656.193 227.336ZM643.905 257.96C633.217 257.96 625.217 255.08 619.905 249.32C614.657 243.496 612.033 235.112 612.033 224.168C612.033 213.16 614.849 204.52 620.481 198.248C626.177 191.912 634.209 188.744 644.577 188.744C654.945 188.744 662.753 191.752 668.001 197.768C673.313 203.72 675.969 212.2 675.969 223.208C675.969 234.216 673.281 242.76 667.905 248.84C662.593 254.92 654.593 257.96 643.905 257.96ZM686.149 189.8H714.373C724.037 189.8 731.237 191.208 735.973 194.024C740.709 196.776 743.077 201.736 743.077 208.904C743.077 216.84 740.197 222.312 734.437 225.32C729.061 228.072 721.541 229.448 711.877 229.448H711.109V255.176H723.109V257H686.149V255.176H692.389V191.624H686.149V189.8ZM711.109 191.624V227.624H713.125C716.965 227.624 719.621 226.312 721.093 223.688C722.565 221.064 723.301 216.808 723.301 210.92V206.312C723.301 200.872 722.597 197.064 721.189 194.888C719.845 192.712 717.349 191.624 713.701 191.624H711.109Z" fill="white"/>
<path d="M298.206 2.68437L182.83 3.89893L184.34 89.9456" stroke="#E9C664" stroke-opacity="0.913725" stroke-width="4.00058" stroke-linecap="round" stroke-linejoin="round"/>
<path d="M501.99 2.01172H617.13V87.6963" stroke="#E9C664" stroke-opacity="0.913725" stroke-width="4" stroke-linecap="round" stroke-linejoin="round"/>
<path d="M184.748 305.884V402.21L402.932 494.23L617.13 402.21V305.884" stroke="#E9C664" stroke-opacity="0.913725" stroke-width="4" stroke-linecap="round"/>
<path d="M275.6 399.6C276.907 399.6 277.733 399.36 278.08 398.88C278.453 398.4 278.64 397.587 278.64 396.44V388.68H276.08V387.8H287.6V388.68H286.04V399.96H285.44C284.96 399.293 284.28 398.96 283.4 398.96C283.027 398.96 281.907 399.2 280.04 399.68C278.2 400.16 276.627 400.4 275.32 400.4C270.973 400.4 267.6 399.227 265.2 396.88C262.827 394.533 261.64 391.013 261.64 386.32C261.64 381.6 262.88 377.96 265.36 375.4C267.867 372.84 271.227 371.56 275.44 371.56C277.067 371.56 278.693 371.773 280.32 372.2C281.973 372.6 282.933 372.8 283.2 372.8C283.467 372.8 283.667 372.747 283.8 372.64C283.933 372.507 284.08 372.293 284.24 372H284.68L285 380.68H284.28C282.973 378.093 281.653 376.067 280.32 374.6C279.013 373.107 277.547 372.36 275.92 372.36C271.84 372.36 269.8 376.347 269.8 384.32V387.48C269.8 391.48 270.293 394.507 271.28 396.56C272.293 398.587 273.733 399.6 275.6 399.6ZM302.226 392.12V388.72C302.226 386.133 302.08 384.253 301.786 383.08C301.52 381.88 300.88 381.28 299.866 381.28C299.28 381.28 298.8 381.453 298.426 381.8C298.08 382.12 297.826 382.667 297.666 383.44C297.426 384.64 297.306 386.467 297.306 388.92V392.04C297.306 394.947 297.386 396.693 297.546 397.28C297.733 397.867 297.92 398.347 298.106 398.72C298.4 399.36 298.973 399.68 299.826 399.68C300.866 399.68 301.546 399.08 301.866 397.88C302.106 397.027 302.226 395.107 302.226 392.12ZM299.746 400.4C296.413 400.4 293.893 399.547 292.186 397.84C290.48 396.133 289.626 393.693 289.626 390.52C289.626 387.32 290.533 384.867 292.346 383.16C294.186 381.427 296.76 380.56 300.066 380.56C303.373 380.56 305.84 381.36 307.466 382.96C309.093 384.533 309.906 386.947 309.906 390.2C309.906 397 306.52 400.4 299.746 400.4ZM301.466 376.8C300.986 376.213 300.746 375.507 300.746 374.68C300.746 373.853 301 373.16 301.506 372.6C302.04 372.04 302.76 371.76 303.666 371.76C304.6 371.76 305.333 372.013 305.866 372.52C306.426 373 306.706 373.707 306.706 374.64C306.706 375.573 306.44 376.32 305.906 376.88C305.4 377.413 304.653 377.68 303.666 377.68C302.68 377.68 301.946 377.387 301.466 376.8ZM293.746 376.8C293.266 376.213 293.026 375.507 293.026 374.68C293.026 373.853 293.28 373.16 293.786 372.6C294.32 372.04 295.04 371.76 295.946 371.76C296.88 371.76 297.613 372.013 298.146 372.52C298.706 373 298.986 373.707 298.986 374.64C298.986 375.573 298.72 376.32 298.186 376.88C297.68 377.413 296.933 377.68 295.946 377.68C294.96 377.68 294.226 377.387 293.746 376.8ZM324.105 400V399.28H325.945L321.425 390L320.665 390.2V399.28H322.505V400H311.025V399.28H313.225V370.72H310.865V370H320.665V389.4L321.305 389.16L330.305 381.68H326.545V380.96H334.425V381.68H331.625L326.865 385.72L333.785 399.28H335.225V400H324.105ZM335.83 370H345.47V384.64C345.896 383.413 346.55 382.427 347.43 381.68C348.31 380.933 349.643 380.56 351.43 380.56C355.563 380.56 357.63 382.787 357.63 387.24V399.28H359.87V400H348.55V399.28H350.19V386.28C350.19 384.68 350.083 383.653 349.87 383.2C349.656 382.72 349.27 382.48 348.71 382.48C347.856 382.48 347.096 383.04 346.43 384.16C345.79 385.28 345.47 386.64 345.47 388.24V399.28H347.19V400H335.83V399.28H338.03V370.72H335.83V370ZM370.078 390.6H371.238V387.52C371.238 384.987 371.091 383.293 370.798 382.44C370.531 381.56 369.998 381.12 369.198 381.12C368.718 381.12 368.278 381.253 367.878 381.52C367.505 381.76 367.318 382.107 367.318 382.56C367.318 382.987 367.398 383.427 367.558 383.88H368.558C368.771 384.44 368.878 385.12 368.878 385.92C368.878 386.693 368.545 387.373 367.878 387.96C367.211 388.52 366.371 388.8 365.358 388.8C363.065 388.8 361.918 387.693 361.918 385.48C361.918 382.2 364.705 380.56 370.278 380.56C373.451 380.56 375.638 381.107 376.838 382.2C378.065 383.267 378.678 385.24 378.678 388.12V396.24C378.678 397.627 379.065 398.32 379.838 398.32C380.745 398.32 381.278 396.947 381.438 394.2L382.038 394.24C381.931 396.587 381.491 398.2 380.718 399.08C379.945 399.96 378.678 400.4 376.918 400.4C373.718 400.4 371.878 399.413 371.398 397.44C371.051 398.453 370.531 399.2 369.838 399.68C369.145 400.16 368.131 400.4 366.798 400.4C362.851 400.4 360.878 398.787 360.878 395.56C360.878 393.667 361.625 392.373 363.118 391.68C364.638 390.96 366.958 390.6 370.078 390.6ZM368.478 395.52C368.478 396.907 368.545 397.8 368.678 398.2C368.838 398.6 369.118 398.8 369.518 398.8C369.945 398.8 370.331 398.467 370.678 397.8C371.051 397.107 371.238 396.16 371.238 394.96V391.24H370.958C369.305 391.24 368.478 392.453 368.478 394.88V395.52ZM382.511 380.96H392.151V384.64C392.578 383.413 393.231 382.427 394.111 381.68C394.991 380.933 396.325 380.56 398.111 380.56C402.245 380.56 404.311 382.787 404.311 387.24V399.28H406.551V400H395.231V399.28H396.871V386.28C396.871 384.68 396.765 383.653 396.551 383.2C396.338 382.72 395.951 382.48 395.391 382.48C394.538 382.48 393.778 383.04 393.111 384.16C392.471 385.28 392.151 386.64 392.151 388.24V399.28H393.871V400H382.511V399.28H384.711V381.68H382.511V380.96ZM414.707 372H435.507L435.907 379.92H435.187C434.067 377.227 432.894 375.387 431.667 374.4C430.441 373.387 428.641 372.88 426.267 372.88H424.867V385.24H426.227C427.481 385.24 428.534 384.773 429.387 383.84C430.241 382.88 430.841 381.6 431.187 380H431.787V391.84H431.107C430.627 389.84 429.974 388.413 429.147 387.56C428.347 386.707 427.241 386.28 425.827 386.28H424.867V399.12H426.387C428.841 399.12 430.921 398.387 432.627 396.92C434.361 395.453 435.547 393.573 436.187 391.28H436.987L436.667 400H414.707V399.12H417.067V372.88H414.707V372ZM452.308 400V399.28H454.148L449.628 390L448.868 390.2V399.28H450.708V400H439.228V399.28H441.428V370.72H439.068V370H448.868V389.4L449.508 389.16L458.508 381.68H454.748V380.96H462.628V381.68H459.828L455.068 385.72L461.988 399.28H463.428V400H452.308ZM473.537 400.4C470.097 400.4 467.511 399.52 465.777 397.76C464.071 395.973 463.217 393.507 463.217 390.36C463.217 387.187 464.177 384.76 466.097 383.08C468.044 381.4 470.511 380.56 473.497 380.56C479.551 380.56 482.457 383.6 482.217 389.68H470.937V391.24C470.937 393.853 471.271 395.827 471.937 397.16C472.604 398.493 473.764 399.16 475.417 399.16C478.511 399.16 480.537 397.507 481.497 394.2L482.217 394.32C481.711 396.24 480.791 397.733 479.457 398.8C478.151 399.867 476.177 400.4 473.537 400.4ZM470.977 388.88H475.097V386.92C475.097 384.76 474.964 383.293 474.697 382.52C474.457 381.72 473.951 381.32 473.177 381.32C472.431 381.32 471.871 381.747 471.497 382.6C471.151 383.427 470.977 384.867 470.977 386.92V388.88ZM494.842 381.28C493.669 381.28 492.829 381.92 492.322 383.2C491.816 384.48 491.562 386.6 491.562 389.56V391.64C491.562 394.28 491.856 396.173 492.442 397.32C493.029 398.467 494.109 399.04 495.682 399.04C497.256 399.04 498.509 398.507 499.442 397.44C500.376 396.373 500.976 395.16 501.242 393.8L501.962 393.88C501.456 396.173 500.522 397.827 499.162 398.84C497.776 399.88 495.869 400.4 493.442 400.4C490.349 400.4 487.976 399.573 486.322 397.92C484.669 396.24 483.842 393.8 483.842 390.6C483.842 387.373 484.776 384.893 486.642 383.16C488.536 381.427 491.162 380.56 494.522 380.56C496.896 380.56 498.709 381.027 499.962 381.96C501.216 382.867 501.842 384.013 501.842 385.4C501.842 386.787 501.536 387.8 500.922 388.44C500.336 389.08 499.509 389.4 498.442 389.4C497.402 389.4 496.562 389.12 495.922 388.56C495.282 388 494.962 387.173 494.962 386.08C494.962 385.6 495.029 385.12 495.162 384.64H496.482C496.669 384.107 496.762 383.627 496.762 383.2C496.762 381.92 496.122 381.28 494.842 381.28ZM508.858 378.2C507.445 378.2 506.431 377.84 505.818 377.12C505.231 376.4 504.938 375.507 504.938 374.44C504.938 373.373 505.258 372.493 505.898 371.8C506.565 371.107 507.565 370.76 508.898 370.76C510.231 370.76 511.245 371.08 511.938 371.72C512.631 372.333 512.978 373.227 512.978 374.4C512.978 375.547 512.645 376.467 511.978 377.16C511.311 377.853 510.271 378.2 508.858 378.2ZM502.818 380.96H512.618V399.28H514.858V400H502.978V399.28H505.178V381.68H502.818V380.96ZM528.753 400V399.28H530.593L526.073 390L525.313 390.2V399.28H527.153V400H515.673V399.28H517.873V370.72H515.513V370H525.313V389.4L525.953 389.16L534.953 381.68H531.193V380.96H539.073V381.68H536.273L531.513 385.72L538.433 399.28H539.873V400H528.753Z" fill="white"/>
<path d="M376.443 281.891C371.982 281.883 367.603 282.982 363.787 285.066C359.97 287.15 356.862 290.14 354.801 293.709C350.966 300.589 344.409 305.92 336.426 308.649C334.299 309.404 332.044 309.826 329.76 309.894C323.774 309.913 317.925 308.277 313 305.207C316.825 313.146 323.161 319.89 331.216 324.595C339.271 329.301 348.686 331.757 358.282 331.658C369.23 331.697 379.889 328.489 388.617 322.527C400.471 313.982 399.923 303.67 399.923 303.67C399.924 291.64 389.877 281.891 376.443 281.891Z" stroke="#E9C664" stroke-width="4" stroke-linecap="round" stroke-linejoin="round"/>
<path d="M473.165 309.657C470.88 309.59 468.625 309.169 466.499 308.413C458.517 305.686 451.961 300.356 448.127 293.478C446.066 289.909 442.957 286.919 439.141 284.835C435.324 282.751 430.946 281.653 426.485 281.66C413.052 281.66 403.004 291.408 403.004 303.433C403.004 303.433 402.452 313.742 414.31 322.29C423.038 328.251 433.696 331.459 444.644 331.421C454.24 331.52 463.654 329.063 471.708 324.358C479.763 319.653 486.099 312.91 489.925 304.972C485 308.042 479.151 309.677 473.165 309.657Z" stroke="#E9C664" stroke-width="4" stroke-linecap="round" stroke-linejoin="round"/>
</svg>
